<svg id="svg" version="1.1" xmlns="http://www.w3.org/2000/svg" xmlns:xlink="http://www.w3.org/1999/xlink" width="400" height="400" viewBox="0, 0, 400,400"><g id="svgg"><path id="path0" d="M189.063 14.063 C 186.979 16.146,187.072 19.712,189.453 28.906 C 190.510 32.988,191.382 36.592,191.391 36.914 C 191.399 37.236,176.654 37.500,158.623 37.500 C 120.656 37.500,120.337 37.550,113.318 44.568 C 105.958 51.929,106.250 49.235,106.250 109.795 L 106.250 162.500 112.500 162.500 L 118.750 162.500 118.769 113.086 C 118.794 45.323,116.317 50.544,148.633 50.137 L 168.750 49.883 168.750 56.192 L 168.750 62.500 151.563 62.500 C 135.417 62.500,134.280 62.595,132.813 64.063 C 131.284 65.591,131.250 66.667,131.250 114.063 L 131.250 162.500 137.500 162.500 L 143.750 162.500 143.750 118.750 L 143.750 75.000 218.750 75.000 L 293.750 75.000 293.750 125.000 L 293.750 175.000 300.000 175.000 L 306.250 175.000 306.250 120.313 C 306.250 66.667,306.220 65.595,304.688 64.063 C 303.220 62.595,302.083 62.500,285.938 62.500 L 268.750 62.500 268.750 56.192 L 268.750 49.883 288.867 50.137 C 321.292 50.546,318.706 44.825,318.731 116.211 L 318.750 168.750 325.000 168.750 L 331.250 168.750 331.250 112.920 C 331.250 48.808,331.576 51.963,324.182 44.568 C 317.163 37.550,316.844 37.500,278.877 37.500 C 260.846 37.500,246.101 37.236,246.109 36.914 C 246.118 36.592,246.990 32.988,248.047 28.906 C 252.498 11.717,253.896 12.500,218.750 12.500 C 191.667 12.500,190.567 12.558,189.063 14.063 M235.141 25.586 C 235.132 25.908,234.260 29.512,233.203 33.594 C 229.215 48.996,229.956 50.000,245.313 50.000 L 256.250 50.000 256.250 56.250 L 256.250 62.500 218.750 62.500 L 181.250 62.500 181.250 56.250 L 181.250 50.000 192.188 50.000 C 207.544 50.000,208.285 48.996,204.297 33.594 C 203.240 29.512,202.368 25.908,202.359 25.586 C 202.351 25.264,209.727 25.000,218.750 25.000 C 227.773 25.000,235.149 25.264,235.141 25.586 M157.813 89.063 C 156.354 90.521,156.250 91.667,156.250 106.250 C 156.250 120.833,156.354 121.979,157.813 123.438 C 159.271 124.896,160.417 125.000,175.000 125.000 C 195.473 125.000,193.750 126.723,193.750 106.250 C 193.750 85.777,195.473 87.500,175.000 87.500 C 160.417 87.500,159.271 87.604,157.813 89.063 M206.250 93.750 L 206.250 100.000 212.500 100.000 L 218.750 100.000 218.750 93.750 L 218.750 87.500 212.500 87.500 L 206.250 87.500 206.250 93.750 M231.250 93.750 L 231.250 100.000 256.250 100.000 L 281.250 100.000 281.250 93.750 L 281.250 87.500 256.250 87.500 L 231.250 87.500 231.250 93.750 M181.250 106.250 L 181.250 112.500 175.000 112.500 L 168.750 112.500 168.750 106.250 L 168.750 100.000 175.000 100.000 L 181.250 100.000 181.250 106.250 M206.250 118.750 L 206.250 125.000 243.750 125.000 L 281.250 125.000 281.250 118.750 L 281.250 112.500 243.750 112.500 L 206.250 112.500 206.250 118.750 M157.813 145.313 C 156.354 146.771,156.250 147.917,156.250 162.500 C 156.250 177.083,156.354 178.229,157.813 179.688 C 159.271 181.146,160.417 181.250,175.000 181.250 C 195.473 181.250,193.750 182.973,193.750 162.500 C 193.750 147.917,193.646 146.771,192.188 145.313 C 190.729 143.854,189.583 143.750,175.000 143.750 C 160.417 143.750,159.271 143.854,157.813 145.313 M206.250 150.000 L 206.250 156.250 212.500 156.250 L 218.750 156.250 218.750 150.000 L 218.750 143.750 212.500 143.750 L 206.250 143.750 206.250 150.000 M231.250 150.000 L 231.250 156.250 256.250 156.250 L 281.250 156.250 281.250 150.000 L 281.250 143.750 256.250 143.750 L 231.250 143.750 231.250 150.000 M181.250 162.500 L 181.250 168.750 175.000 168.750 L 168.750 168.750 168.750 162.500 L 168.750 156.250 175.000 156.250 L 181.250 156.250 181.250 162.500 M206.250 175.000 L 206.250 181.250 243.750 181.250 L 281.250 181.250 281.250 175.000 L 281.250 168.750 243.750 168.750 L 206.250 168.750 206.250 175.000 M356.003 173.940 C 266.989 199.843,185.600 225.119,182.600 227.792 C 163.393 244.906,160.530 248.765,163.260 253.866 C 164.330 255.867,165.063 256.073,181.641 259.044 L 196.484 261.703 264.699 241.319 C 302.218 230.108,333.059 221.079,333.235 221.256 C 333.411 221.432,333.784 224.037,334.063 227.046 L 334.572 232.516 315.528 238.240 C 305.054 241.388,295.342 244.284,293.945 244.675 C 290.930 245.519,290.871 246.196,293.203 253.231 L 294.922 258.415 319.522 251.044 C 350.401 241.791,347.996 243.738,347.360 228.503 L 346.870 216.771 358.167 213.372 C 373.220 208.843,377.681 205.063,379.276 195.485 C 381.387 182.806,368.030 170.441,356.003 173.940 M20.313 176.563 C 18.766 178.109,18.750 179.167,18.750 281.250 C 18.750 383.333,18.766 384.391,20.313 385.938 C 22.777 388.402,252.223 388.402,254.687 385.938 C 257.140 383.485,257.140 279.015,254.688 276.563 C 253.155 275.030,252.083 275.000,198.438 275.000 L 143.750 275.000 143.750 226.563 C 143.750 179.167,143.716 178.091,142.188 176.563 C 140.652 175.027,139.583 175.000,81.250 175.000 C 22.917 175.000,21.848 175.027,20.313 176.563 M363.520 188.302 C 370.409 193.720,366.958 196.906,348.274 202.378 L 346.157 202.998 345.930 197.007 L 345.703 191.016 352.344 188.940 C 360.557 186.373,361.034 186.346,363.520 188.302 M56.250 204.688 C 56.250 227.327,53.386 225.000,81.250 225.000 C 109.114 225.000,106.250 227.327,106.250 204.688 L 106.250 187.500 118.750 187.500 L 131.250 187.500 131.250 231.250 L 131.250 275.000 81.250 275.000 L 31.250 275.000 31.250 231.250 L 31.250 187.500 43.750 187.500 L 56.250 187.500 56.250 204.688 M93.750 200.000 L 93.750 212.500 81.250 212.500 L 68.750 212.500 68.750 200.000 L 68.750 187.500 81.250 187.500 L 93.750 187.500 93.750 200.000 M332.813 201.111 L 332.813 206.910 330.273 207.720 C 328.877 208.166,308.223 214.356,284.375 221.475 C 260.527 228.594,240.057 234.739,238.886 235.131 C 236.784 235.834,236.736 235.773,235.120 230.347 C 234.220 227.324,233.596 224.758,233.734 224.645 C 234.308 224.176,330.193 195.473,331.445 195.397 C 332.632 195.324,332.813 196.077,332.813 201.111 M222.352 234.245 L 223.924 239.584 210.072 243.710 L 196.219 247.837 189.688 246.865 L 183.156 245.893 187.867 241.375 C 192.540 236.892,192.682 236.824,205.469 232.926 C 221.806 227.946,220.466 227.841,222.352 234.245 M106.250 256.250 L 106.250 262.500 112.500 262.500 L 118.750 262.500 118.750 256.250 L 118.750 250.000 112.500 250.000 L 106.250 250.000 106.250 256.250 M318.731 290.039 C 318.703 332.480,319.982 330.721,288.867 331.113 L 268.750 331.367 268.750 337.558 L 268.750 343.750 290.205 343.750 C 318.052 343.750,323.084 341.972,328.943 330.066 L 330.859 326.172 331.080 294.336 L 331.300 262.500 325.025 262.500 L 318.750 262.500 318.731 290.039 M293.750 287.500 L 293.750 306.250 281.250 306.250 L 268.750 306.250 268.750 312.500 L 268.750 318.750 285.938 318.750 C 308.639 318.750,306.250 321.874,306.250 292.188 L 306.250 268.750 300.000 268.750 L 293.750 268.750 293.750 287.500 M56.250 304.688 C 56.250 327.327,53.386 325.000,81.250 325.000 C 109.114 325.000,106.250 327.327,106.250 304.688 L 106.250 287.500 118.750 287.500 L 131.250 287.500 131.250 331.250 L 131.250 375.000 81.250 375.000 L 31.250 375.000 31.250 331.250 L 31.250 287.500 43.750 287.500 L 56.250 287.500 56.250 304.688 M93.750 300.000 L 93.750 312.500 81.250 312.500 L 68.750 312.500 68.750 300.000 L 68.750 287.500 81.250 287.500 L 93.750 287.500 93.750 300.000 M168.750 304.688 C 168.750 327.327,165.886 325.000,193.750 325.000 C 221.614 325.000,218.750 327.327,218.750 304.688 L 218.750 287.500 231.250 287.500 L 243.750 287.500 243.750 331.250 L 243.750 375.000 193.750 375.000 L 143.750 375.000 143.750 331.250 L 143.750 287.500 156.250 287.500 L 168.750 287.500 168.750 304.688 M206.250 300.000 L 206.250 312.500 193.750 312.500 L 181.250 312.500 181.250 300.000 L 181.250 287.500 193.750 287.500 L 206.250 287.500 206.250 300.000 M106.250 356.250 L 106.250 362.500 112.500 362.500 L 118.750 362.500 118.750 356.250 L 118.750 350.000 112.500 350.000 L 106.250 350.000 106.250 356.250 M218.750 356.250 L 218.750 362.500 225.000 362.500 L 231.250 362.500 231.250 356.250 L 231.250 350.000 225.000 350.000 L 218.750 350.000 218.750 356.250 " stroke="none" fill="#000000" fill-rule="evenodd"></path></g></svg>