<svg id="svg" xmlns="http://www.w3.org/2000/svg" xmlns:xlink="http://www.w3.org/1999/xlink" width="400" height="400" viewBox="0, 0, 400,400"><g id="svgg"><path id="path0" d="M107.342 1.871 C 96.408 6.962,93.768 12.842,93.758 32.120 L 93.750 46.663 82.227 47.096 C 19.802 49.442,-18.978 115.306,8.988 171.484 C 23.066 199.764,50.419 217.334,82.227 218.529 L 93.750 218.962 93.758 300.692 L 93.765 382.422 95.621 386.408 C 97.985 391.483,102.267 395.765,107.342 398.129 L 111.328 399.985 246.875 399.985 L 382.422 399.985 386.408 398.129 C 391.483 395.765,395.765 391.483,398.129 386.408 L 399.985 382.422 399.992 232.047 L 400.000 81.672 359.164 40.836 L 318.328 0.000 214.828 0.008 L 111.328 0.015 107.342 1.871 M306.250 52.628 L 306.250 89.631 308.310 91.690 L 310.369 93.750 347.380 93.750 L 384.392 93.750 384.188 236.133 C 383.967 390.751,384.271 380.568,379.801 382.961 C 376.971 384.476,116.779 384.476,113.949 382.961 C 109.541 380.602,109.783 385.322,109.556 297.198 L 109.347 215.881 112.681 214.899 C 160.348 200.860,185.723 142.518,164.168 96.521 C 154.109 75.056,133.727 56.924,112.695 50.731 L 109.375 49.753 109.375 37.474 C 109.375 23.102,109.696 20.986,112.265 18.417 C 114.995 15.687,109.040 15.847,211.914 15.731 L 306.250 15.625 306.250 52.628 M347.266 53.125 L 372.256 78.125 347.066 78.125 L 321.875 78.125 321.875 53.125 C 321.875 39.375,321.965 28.125,322.075 28.125 C 322.185 28.125,333.521 39.375,347.266 53.125 M194.247 48.935 C 192.603 50.579,192.188 51.739,192.188 54.688 C 192.188 57.636,192.603 58.796,194.247 60.440 L 196.307 62.500 241.406 62.500 L 286.506 62.500 288.565 60.440 C 290.210 58.796,290.625 57.636,290.625 54.688 C 290.625 51.739,290.210 50.579,288.565 48.935 L 286.506 46.875 241.406 46.875 L 196.307 46.875 194.247 48.935 M78.125 99.893 L 78.125 136.506 80.185 138.565 L 82.244 140.625 118.837 140.625 L 155.430 140.625 154.986 143.164 C 144.441 203.515,69.465 223.603,31.564 176.232 C -2.141 134.107,24.323 69.130,77.539 63.345 C 77.861 63.310,78.125 79.757,78.125 99.893 M102.789 65.229 C 129.970 72.124,150.035 94.124,154.986 122.461 L 155.430 125.000 124.590 125.000 L 93.750 125.000 93.750 94.141 C 93.750 77.115,94.055 63.281,94.431 63.281 C 94.806 63.281,98.567 64.158,102.789 65.229 M194.247 80.185 C 192.603 81.829,192.188 82.989,192.188 85.938 C 192.188 88.886,192.603 90.046,194.247 91.690 L 196.307 93.750 241.406 93.750 L 286.506 93.750 288.565 91.690 C 290.210 90.046,290.625 88.886,290.625 85.938 C 290.625 82.989,290.210 81.829,288.565 80.185 L 286.506 78.125 241.406 78.125 L 196.307 78.125 194.247 80.185 M33.218 127.148 C 28.934 131.426,31.603 148.786,38.390 160.789 C 51.324 183.661,93.750 198.144,93.750 179.687 C 93.750 174.487,91.309 172.132,85.294 171.528 C 63.202 169.311,49.439 155.548,47.222 133.456 C 46.403 125.293,38.597 121.778,33.218 127.148 M189.560 127.060 C 187.915 128.704,187.500 129.864,187.500 132.813 C 187.500 135.761,187.915 136.921,189.560 138.565 C 191.204 140.210,192.364 140.625,195.313 140.625 C 198.261 140.625,199.421 140.210,201.065 138.565 C 202.710 136.921,203.125 135.761,203.125 132.813 C 203.125 129.864,202.710 128.704,201.065 127.060 C 199.421 125.415,198.261 125.000,195.313 125.000 C 192.364 125.000,191.204 125.415,189.560 127.060 M220.810 127.060 C 219.165 128.704,218.750 129.864,218.750 132.813 C 218.750 135.761,219.165 136.921,220.810 138.565 L 222.869 140.625 285.937 140.625 L 349.006 140.625 351.065 138.565 C 352.710 136.921,353.125 135.761,353.125 132.813 C 353.125 129.864,352.710 128.704,351.065 127.060 L 349.006 125.000 285.937 125.000 L 222.869 125.000 220.810 127.060 M189.560 158.310 C 187.915 159.954,187.500 161.114,187.500 164.063 C 187.500 167.011,187.915 168.171,189.560 169.815 C 191.204 171.460,192.364 171.875,195.313 171.875 C 198.261 171.875,199.421 171.460,201.065 169.815 C 202.710 168.171,203.125 167.011,203.125 164.063 C 203.125 161.114,202.710 159.954,201.065 158.310 C 199.421 156.665,198.261 156.250,195.313 156.250 C 192.364 156.250,191.204 156.665,189.560 158.310 M220.810 158.310 C 219.165 159.954,218.750 161.114,218.750 164.063 C 218.750 167.011,219.165 168.171,220.810 169.815 L 222.869 171.875 285.937 171.875 L 349.006 171.875 351.065 169.815 C 352.710 168.171,353.125 167.011,353.125 164.063 C 353.125 161.114,352.710 159.954,351.065 158.310 L 349.006 156.250 285.937 156.250 L 222.869 156.250 220.810 158.310 M333.123 209.684 C 321.606 215.047,316.194 229.062,321.172 240.634 L 322.813 244.449 295.977 273.201 L 269.141 301.953 263.438 301.695 C 260.302 301.553,256.728 301.788,255.495 302.217 C 251.963 303.449,228.607 274.377,230.178 270.703 C 238.038 252.315,216.424 232.339,197.967 240.934 C 186.695 246.183,182.967 255.218,185.304 271.628 C 185.640 273.989,158.805 303.414,157.044 302.615 C 153.476 300.995,143.057 301.408,138.846 303.336 C 115.609 313.974,122.938 348.422,148.438 348.422 C 165.551 348.422,173.868 336.394,170.946 315.872 C 170.610 313.514,197.443 284.088,199.206 284.881 C 201.306 285.827,212.395 286.127,214.763 285.301 C 218.345 284.053,241.725 313.077,240.135 316.797 C 237.076 323.952,239.722 335.763,245.729 341.771 C 263.854 359.896,294.426 339.163,284.297 315.616 L 282.656 311.801 309.492 283.049 L 336.328 254.297 342.378 254.552 C 347.480 254.766,349.083 254.507,352.602 252.895 C 375.801 242.275,368.438 207.828,342.969 207.828 C 338.440 207.828,336.204 208.249,333.123 209.684 M347.940 226.278 C 349.429 227.767,350.000 229.145,350.000 231.250 C 350.000 233.355,349.429 234.733,347.940 236.222 C 346.452 237.710,345.073 238.281,342.969 238.281 C 340.864 238.281,339.486 237.710,337.997 236.222 C 336.509 234.733,335.938 233.355,335.938 231.250 C 335.938 229.145,336.509 227.767,337.997 226.278 C 339.486 224.790,340.864 224.219,342.969 224.219 C 345.073 224.219,346.452 224.790,347.940 226.278 M212.784 257.528 C 214.273 259.017,214.844 260.395,214.844 262.500 C 214.844 264.605,214.273 265.983,212.784 267.472 C 211.296 268.960,209.917 269.531,207.813 269.531 C 205.708 269.531,204.329 268.960,202.841 267.472 C 201.352 265.983,200.781 264.605,200.781 262.500 C 200.781 260.395,201.352 259.017,202.841 257.528 C 204.329 256.040,205.708 255.469,207.813 255.469 C 209.917 255.469,211.296 256.040,212.784 257.528 M153.409 320.028 C 157.887 324.506,154.770 332.031,148.438 332.031 C 146.333 332.031,144.954 331.460,143.466 329.972 C 138.988 325.494,142.105 317.969,148.438 317.969 C 150.542 317.969,151.921 318.540,153.409 320.028 M267.472 320.028 C 268.960 321.517,269.531 322.895,269.531 325.000 C 269.531 327.105,268.960 328.483,267.472 329.972 C 265.983 331.460,264.605 332.031,262.500 332.031 C 260.395 332.031,259.017 331.460,257.528 329.972 C 256.040 328.483,255.469 327.105,255.469 325.000 C 255.469 322.895,256.040 321.517,257.528 320.028 C 259.017 318.540,260.395 317.969,262.500 317.969 C 264.605 317.969,265.983 318.540,267.472 320.028 " stroke="none" fill="#000000" fill-rule="evenodd"></path></g></svg>